<?xml version="1.0" encoding="utf-8"?>
<!-- Generator: Adobe Illustrator 27.2.0, SVG Export Plug-In . SVG Version: 6.00 Build 0)  -->
<svg version="1.1" id="a" xmlns="http://www.w3.org/2000/svg" xmlns:xlink="http://www.w3.org/1999/xlink" x="0px" y="0px"
     viewBox="0 0 500 500" style="enable-background:new 0 0 500 500;" xml:space="preserve">
<style type="text/css">
	.st0{fill:#1D1D1B;}
	.st1{fill:#FFFFFF;}
</style>
    <rect class="st0" width="600" height="600"/>
    <path class="st1" d="M107.2,143.5c0,14.9,8,28.8,20.9,36.2l25.5,14.7c3.9,2.3,6.3,6.4,6.3,11L160,403.5c0,49.1,40,89.1,89.1,89.1
	h54.5c49.2,0,89.1-39.9,89.1-89.1v-47c0-14.9-8-28.7-20.9-36.2l-25.7-14.8c-3.8-2.2-6.2-6.3-6.2-10.7V96.5
	c0-49.2-39.9-89.1-89.1-89.1h-54.5c-49.2,0-89.1,39.9-89.1,89.1V143.5z M169.6,196.5V43.8c0-14.8,12-26.7,26.7-26.7h54.5
	c14.8,0,26.8,12,26.8,26.7v198c0,14.9,8,28.7,20.9,36.2l25.5,14.7c3.9,2.3,6.3,6.4,6.3,11v152.6c0,14.8-12,26.7-26.7,26.7h-54.5
	c-14.8,0-26.8-12-26.8-26.8v-198c0-14.9-8-28.7-20.9-36.2l-25.7-14.8C172,205,169.6,200.9,169.6,196.5L169.6,196.5z"/>
</svg>
